<svg width="170" height="18" viewBox="0 0 170 18" fill="none" xmlns="http://www.w3.org/2000/svg">
<path d="M6.76735 4.73235C6.76735 4.36254 6.64457 4.17764 6.39901 4.17764C6.15827 4.17764 5.85734 4.22659 5.49622 4.32448C5.13992 4.42237 4.75713 4.57464 4.34786 4.78129C3.41377 5.25442 2.56875 5.90701 1.81281 6.73906C1.7117 6.83695 1.57448 6.8859 1.40114 6.8859C1.23262 6.8859 1.09058 6.83967 0.975019 6.74722C0.859461 6.64933 0.801682 6.52425 0.801682 6.37198C0.801682 6.21971 0.830572 6.05928 0.888351 5.8907C0.94613 5.71667 1.00632 5.51274 1.06891 5.27889C1.1315 5.03961 1.1965 4.80304 1.26391 4.5692C1.43725 4.00906 1.59855 3.63926 1.74781 3.45979C2.02226 3.2042 2.75654 2.92141 3.95063 2.61142C5.27473 2.26881 6.56994 2.09751 7.83626 2.09751C8.3659 2.09751 8.80406 2.31776 9.15073 2.75826C9.44926 3.13894 9.59852 3.53865 9.59852 3.95739C9.59852 4.31632 9.36259 5.16741 8.89073 6.51066C8.14442 8.65333 7.38126 10.3283 6.60124 11.5356C6.38457 11.8728 6.17031 12.1474 5.95845 12.3595C5.6503 12.6314 5.24584 12.8598 4.74509 13.0447C3.89767 13.3656 3.34636 13.526 3.09117 13.526C2.8408 13.526 2.59283 13.4879 2.34727 13.4118C2.10171 13.3411 1.86337 13.2487 1.63225 13.1345C1.40595 13.0148 1.1941 12.8816 0.996686 12.7347C0.799275 12.5825 0.625938 12.4329 0.476676 12.2861C0.158892 11.9652 0 11.7042 0 11.503C0 11.3126 0.204634 11.0054 0.613901 10.5812C1.0328 10.1461 1.37706 9.9286 1.6467 9.9286C1.82967 9.9286 2.05115 10.0075 2.31116 10.1652L2.86728 10.5241C2.98765 10.5948 3.09358 10.6301 3.18506 10.6301C3.28136 10.6301 3.41377 10.554 3.58229 10.4017C3.75081 10.244 3.93137 10.0374 4.12397 9.78177C4.31657 9.52617 4.51398 9.23251 4.7162 8.90077C4.92324 8.56904 5.12306 8.22915 5.31566 7.8811C5.51307 7.52761 5.69844 7.17684 5.87178 6.8288C6.04993 6.48075 6.20401 6.16261 6.33401 5.87438C6.62291 5.24898 6.76735 4.8683 6.76735 4.73235Z" fill="#7CB124"/>
<path d="M22.1149 7.13878C22.3315 7.13878 22.4399 7.26386 22.4399 7.51402C22.4399 7.91101 22.2088 8.47115 21.7465 9.19444C21.4239 9.7002 20.7595 10.4017 19.7532 11.299C18.5543 12.3595 17.5913 12.8897 16.8642 12.8897C16.3153 12.8897 15.9012 12.6287 15.622 12.1066C15.4535 11.7912 15.3162 11.329 15.2103 10.7199L14.5675 11.2419C12.8004 12.6233 11.4812 13.3139 10.6097 13.3139C9.8826 13.3139 9.3 13.0148 8.86184 12.4166C8.47665 11.8782 8.28405 11.2338 8.28405 10.4833C8.28405 9.65669 8.53443 9.0041 9.03518 8.52553C10.0559 7.55752 11.3247 6.76082 12.8414 6.13542C13.4577 5.87982 13.8477 5.75202 14.0114 5.75202C14.1751 5.75202 14.3244 5.78465 14.4592 5.84991C14.5988 5.90973 14.736 5.98858 14.8708 6.08647C15.1886 6.33119 15.3475 6.56776 15.3475 6.79617C15.3475 6.98107 15.2464 7.13062 15.0442 7.24482C14.9816 7.28289 14.8757 7.33455 14.7264 7.39981C14.5771 7.46507 14.3942 7.5548 14.1775 7.66901C13.5949 7.97899 13.0267 8.35423 12.473 8.79473C12.0782 9.1754 11.8808 9.47995 11.8808 9.70835C11.8808 9.93132 12.0204 10.0428 12.2997 10.0428C12.5308 10.0428 12.993 9.81168 13.6864 9.34943C13.6864 9.34943 13.891 9.20803 14.3003 8.92524C14.7384 8.61526 15.0899 8.33247 15.3547 8.07688C15.3547 8.07688 15.4655 7.66901 15.687 6.85327C16.0962 5.39581 16.5513 4.19124 17.052 3.23954C17.9379 1.31984 18.8287 0.359985 19.7243 0.359985C20.0517 0.359985 20.3117 0.427964 20.5043 0.56392C20.851 0.808642 21.0243 1.08055 21.0243 1.37966C21.0243 1.67333 20.9762 1.98602 20.8799 2.31776C20.7836 2.64949 20.656 2.97851 20.4971 3.3048C20.343 3.6311 20.1648 3.95468 19.9626 4.27553L18.7276 6.1191C18.5205 6.41821 18.3376 6.70915 18.1787 6.99194C17.8994 7.67173 17.7598 8.25362 17.7598 8.73762C17.7598 9.43372 17.9837 9.78177 18.4315 9.78177C18.6867 9.78177 19.1465 9.47995 19.8109 8.8763L20.6632 8.06056C21.0628 7.65813 21.4576 7.37534 21.8477 7.21219C21.9584 7.16325 22.0475 7.13878 22.1149 7.13878Z" fill="#7CB124"/>
<path d="M30.8395 7.17141C31.0706 7.17141 31.1862 7.31824 31.1862 7.6119C31.1862 7.80768 31.126 8.05512 31.0056 8.35423C30.89 8.64789 30.7215 8.92524 30.5 9.18628C30.2786 9.44188 30.0234 9.70835 29.7345 9.98571C29.4504 10.2631 29.1158 10.554 28.7306 10.8585C28.3502 11.1631 27.9289 11.4649 27.4667 11.764C27.0044 12.0631 26.5133 12.3323 25.9933 12.5716C24.8425 13.1045 23.7279 13.371 22.6493 13.371C21.826 13.371 21.1062 13.129 20.4898 12.645C19.8446 12.1393 19.522 11.5247 19.522 10.8014C19.522 9.66485 20.0637 8.58535 21.1471 7.56296C22.0812 6.68196 23.1814 5.99946 24.4477 5.51546C25.2181 5.22179 25.8705 5.07496 26.405 5.07496C26.8383 5.07496 27.2042 5.1946 27.5028 5.43388C27.8205 5.69492 27.9794 6.04569 27.9794 6.48619C27.9794 7.17684 27.4955 7.94092 26.5277 8.77841C26.3737 8.91437 26.234 9.02857 26.1088 9.12102L25.8488 9.3168C25.3673 9.69748 24.6355 10.1244 23.6532 10.5975C23.9566 10.777 24.2383 10.8667 24.4983 10.8667C24.7631 10.8667 24.999 10.8314 25.206 10.7607C25.4179 10.69 25.6562 10.5894 25.9211 10.4588C26.1859 10.3283 26.4676 10.1733 26.7661 9.99386C27.0694 9.80896 27.3752 9.60775 27.6833 9.39022C28.3719 8.90621 28.9689 8.41133 29.4745 7.90557C29.7393 7.62822 30.0763 7.40797 30.4856 7.24482C30.6204 7.19588 30.7384 7.17141 30.8395 7.17141ZM22.8732 9.46363L23.2705 9.23523C23.4005 9.15909 23.516 9.08839 23.6171 9.02313C24.5897 8.39229 25.1435 8.00346 25.2783 7.85663C25.4131 7.70979 25.4805 7.60919 25.4805 7.5548C25.4805 7.49498 25.4661 7.427 25.4372 7.35087C25.4083 7.27473 25.3698 7.20675 25.3216 7.14693C25.206 6.99466 25.0833 6.91853 24.9533 6.91853C24.8233 6.91853 24.6788 6.94572 24.5199 7.0001C24.3658 7.05448 24.2094 7.13062 24.0505 7.22851C23.8916 7.32096 23.7375 7.43516 23.5882 7.57112C23.4438 7.70164 23.3162 7.84303 23.2055 7.9953C22.9503 8.33791 22.8227 8.6343 22.8227 8.88446C22.8227 9.13462 22.8395 9.32768 22.8732 9.46363Z" fill="#7CB124"/>
<path d="M35.7218 3.73714C35.5822 3.86766 35.4305 3.97643 35.2668 4.06344C35.1031 4.14501 34.9201 4.1858 34.7179 4.1858C34.5157 4.1858 34.3207 4.14773 34.1329 4.0716C33.9451 3.99546 33.7814 3.88942 33.6418 3.75346C33.3384 3.45979 33.1868 3.08455 33.1868 2.62774C33.1868 1.9262 33.7068 1.40413 34.7468 1.06152C35.0983 0.941879 35.3872 0.882058 35.6135 0.882058C35.8398 0.882058 36.0083 0.911969 36.119 0.97179C36.2346 1.02617 36.3285 1.09959 36.4007 1.19204C36.5452 1.37694 36.6174 1.56728 36.6174 1.76306C36.6174 1.9534 36.5957 2.12742 36.5524 2.28513C36.5139 2.44284 36.4561 2.60599 36.379 2.77457C36.302 2.94316 36.2081 3.11174 36.0974 3.28033C35.9866 3.44892 35.8614 3.60119 35.7218 3.73714ZM33.9018 12.7184C33.5358 12.9305 33.1795 13.0991 32.8329 13.2242C32.4862 13.3547 32.1443 13.42 31.8073 13.42C31.4751 13.42 31.1284 13.3302 30.7673 13.1508C30.411 12.9659 30.0932 12.7211 29.8139 12.4166C29.1928 11.7368 28.8822 10.9809 28.8822 10.1489C28.8822 9.38206 29.0845 8.60439 29.4889 7.81584C29.8597 7.10343 30.3315 6.50522 30.9045 6.02121C31.4775 5.53721 32.0095 5.29521 32.5006 5.29521C33.2036 5.29521 33.5792 5.51817 33.6273 5.96411C33.6418 6.10007 33.649 6.25778 33.649 6.43724C33.649 6.6167 33.6105 6.82336 33.5334 7.0572C33.4612 7.28561 33.3649 7.51674 33.2445 7.75058C33.129 7.97899 32.999 8.20468 32.8545 8.42764C32.7149 8.64517 32.5801 8.84367 32.4501 9.02313C32.1997 9.36574 31.9999 9.61318 31.8506 9.76546C31.8506 9.95036 31.9734 10.1407 32.219 10.3365C32.4501 10.5214 32.6451 10.6138 32.804 10.6138C32.9677 10.6138 33.1579 10.5703 33.3745 10.4833C33.596 10.3963 33.8223 10.2794 34.0534 10.1325C34.2894 9.98571 34.5277 9.81712 34.7685 9.62678C35.014 9.43644 35.2548 9.24066 35.4907 9.03945L36.8124 7.87294C37.3372 7.44332 37.7633 7.22851 38.0907 7.22851C38.2207 7.22851 38.3195 7.28289 38.3869 7.39166C38.4591 7.49498 38.4952 7.61734 38.4952 7.75874C38.4952 7.90013 38.4326 8.09591 38.3074 8.34607C38.1822 8.59079 38.0089 8.8627 37.7874 9.16181C37.5707 9.46091 37.3155 9.77361 37.0218 10.0999C36.7281 10.4262 36.4103 10.7471 36.0685 11.0625C35.7266 11.3779 35.3703 11.6797 34.9996 11.968C34.6336 12.2507 34.2677 12.5009 33.9018 12.7184Z" fill="#7CB124"/>
<path d="M49.3721 7.04089C49.5262 7.04089 49.6032 7.18772 49.6032 7.48139C49.6032 7.98714 49.2902 8.64246 48.6643 9.44732L48.2526 9.92045C47.0056 11.329 45.8307 12.2671 44.7281 12.7347C44.0444 13.023 43.5533 13.0094 43.2547 12.694C43.0092 12.4275 42.8142 11.9979 42.6697 11.4051L42.4964 10.6954L40.958 11.764L40.0697 12.335C39.0104 12.9876 38.2159 13.3139 37.6863 13.3139C37.0074 13.3139 36.4416 13.0175 35.989 12.4248C35.5557 11.8646 35.339 11.2148 35.339 10.4751C35.339 9.74642 35.5966 9.09655 36.1118 8.52553C36.8485 7.70979 38.0113 6.96203 39.6002 6.28225C41.1025 5.64597 42.3158 5.32784 43.2403 5.32784C43.5533 5.32784 43.7097 5.50186 43.7097 5.84991C43.7097 6.08919 43.6688 6.26865 43.587 6.3883C43.5051 6.50794 43.3366 6.6303 43.0814 6.75538L42.1714 7.19588C40.8232 7.83215 39.8362 8.4929 39.2102 9.17812C39.0321 9.36846 38.943 9.55336 38.943 9.73283C38.943 9.91229 39.0706 10.002 39.3258 10.002C39.5761 10.002 40.1587 9.69748 41.0736 9.08839L41.673 8.68868C42.6023 8.05784 43.3799 7.74242 44.0059 7.74242C44.5355 7.74242 44.887 8.00618 45.0603 8.53369C45.1037 8.67508 45.1446 8.8192 45.1831 8.96603C45.2216 9.10743 45.2601 9.23523 45.2987 9.34943C45.3853 9.6159 45.4624 9.74914 45.5298 9.74914C45.602 9.74914 45.7031 9.71107 45.8331 9.63494C45.9631 9.55336 46.1052 9.45276 46.2592 9.33311C46.4181 9.20803 46.5818 9.07208 46.7504 8.92524L47.6243 8.13398C48.3995 7.40525 48.9821 7.04089 49.3721 7.04089Z" fill="#7CB124"/>
<path d="M52.456 5.22179C52.5042 5.33055 52.5283 5.47467 52.5283 5.65413C52.5283 5.82816 52.4488 6.02665 52.2899 6.24962C52.4151 6.39645 52.574 6.56776 52.7666 6.76354C52.964 6.95388 53.1542 7.16325 53.3372 7.39166C53.7801 7.9518 54.0016 8.48746 54.0016 8.99866C54.0016 9.33583 53.797 9.74642 53.3877 10.2304C53.2625 10.3827 53.1253 10.5241 52.976 10.6546C53.4768 10.4371 54.0787 10.0047 54.7816 9.35759L55.6266 8.57448C56.1178 8.11222 56.4452 7.84575 56.6089 7.77505C56.7774 7.70436 56.9291 7.66901 57.0639 7.66901C57.1987 7.66901 57.3287 7.70707 57.4539 7.78321C57.5839 7.85935 57.6489 7.98443 57.6489 8.15845C57.6489 8.32704 57.6248 8.4929 57.5767 8.65605C57.5285 8.81376 57.4708 8.96059 57.4033 9.09655C57.307 9.29233 57.1674 9.49354 56.9845 9.7002C56.4789 10.2386 55.9878 10.7335 55.5111 11.1848C55.0392 11.6308 54.5505 12.0142 54.0449 12.335C52.976 13.0094 51.7916 13.3465 50.4915 13.3465C49.7645 13.3465 49.1337 13.1372 48.5993 12.7184C48.3778 12.5444 48.2069 12.3649 48.0865 12.18C47.9709 11.9897 47.9132 11.8429 47.9132 11.7395C47.9132 11.6308 47.9445 11.5193 48.0071 11.4051C48.0696 11.2854 48.1539 11.1631 48.2598 11.038C48.3658 10.9129 48.4861 10.7878 48.621 10.6628C48.7606 10.5377 48.9026 10.4262 49.0471 10.3283C49.3841 10.1053 49.6345 9.99386 49.7982 9.99386C49.9667 9.99386 50.0943 10.0183 50.181 10.0673C50.2677 10.1108 50.3471 10.1597 50.4193 10.2141C50.6167 10.3664 50.7564 10.4425 50.8382 10.4425C51.0356 10.4425 51.1343 10.2902 51.1343 9.98571C51.1343 9.70292 51.0019 9.36302 50.7371 8.96603C50.6312 8.80288 50.5204 8.64246 50.4049 8.48475C50.2893 8.32704 50.193 8.17205 50.116 8.01977C49.9619 8.22099 49.7693 8.42764 49.5382 8.63974L48.8376 9.30864C48.3513 9.78177 47.9011 10.0075 47.487 9.98571C47.2463 9.96395 47.1259 9.66213 47.1259 9.08023C47.1259 8.97691 47.1331 8.8763 47.1476 8.77841C47.1717 8.60983 47.3185 8.40589 47.5882 8.16661C47.8578 7.92732 48.0528 7.76418 48.1732 7.67716C48.2984 7.58471 48.4043 7.50314 48.491 7.43244L49.2565 6.84511C49.2565 6.29041 49.5406 5.78193 50.1088 5.31968C50.648 4.88462 51.1825 4.66709 51.7121 4.66709C52.0492 4.66709 52.2971 4.85199 52.456 5.22179Z" fill="#7CB124"/>
<path d="M65.1457 11.1277C65.3046 11.0516 65.5261 10.932 65.8102 10.7688C67.5484 9.76274 68.5017 9.20803 68.6702 9.10471L68.9736 8.91709C69.2865 8.68868 69.431 8.50922 69.4069 8.3787C69.354 8.10135 69.2215 7.98986 69.0097 8.04425C68.7978 8.09319 68.5763 8.16117 68.3452 8.24818C68.1189 8.33519 67.8782 8.44124 67.623 8.56632C67.0885 8.81648 66.6191 9.06664 66.2146 9.3168C64.799 10.2359 63.9468 10.7933 63.6579 10.9891C63.4509 11.5166 63.2655 12.0414 63.1018 12.5634L62.2279 15.3533C61.9534 16.218 61.6766 16.8026 61.3973 17.1071C61.2481 17.2757 61.0819 17.36 60.899 17.36C60.4464 17.36 60.0901 17.1805 59.8301 16.8216C59.5701 16.4681 59.4401 16.0167 59.4401 15.4675C59.4401 14.9236 59.5026 14.3853 59.6278 13.8523C59.753 13.3248 59.9264 12.7891 60.1478 12.2453C60.5956 11.1468 61.1951 10.1217 61.9462 9.16997C62.4036 7.78321 63.1644 6.43724 64.2285 5.13206C64.8785 4.33807 65.4828 3.77793 66.0413 3.45164C66.3206 3.28849 66.5589 3.20691 66.7563 3.20691C66.9537 3.20691 67.103 3.25858 67.2041 3.3619C67.3052 3.45979 67.3558 3.58487 67.3558 3.73714C67.3558 3.88398 67.3148 4.0716 67.233 4.3C67.1511 4.52841 67.0404 4.78401 66.9008 5.0668C66.7611 5.34959 66.5974 5.65141 66.4096 5.97227L65.8102 6.95931C65.762 7.04089 65.738 7.1143 65.738 7.17956C65.738 7.28289 65.7933 7.33455 65.9041 7.33455C66.0293 7.33455 66.2604 7.24482 66.5974 7.06536L67.753 6.46171C68.7641 5.94508 69.7319 5.68676 70.6564 5.68676C71.1379 5.68676 71.5905 5.94508 72.0142 6.46171C72.4427 6.98379 72.657 7.54393 72.657 8.14214C72.657 9.06664 72.3223 9.77905 71.6531 10.2794L70.7575 10.9483C70.4349 11.1767 70.1027 11.4024 69.7608 11.6253L68.7208 12.2698C67.5508 12.955 66.6456 13.2976 66.0052 13.2976C65.3696 13.2976 64.9074 13.2079 64.6185 13.0284C64.3296 12.8489 64.1852 12.5961 64.1852 12.2698C64.1852 11.8293 64.5053 11.4486 65.1457 11.1277Z" fill="#7CB124"/>
<path d="M84.9928 7.04089C85.1469 7.04089 85.2239 7.18772 85.2239 7.48139C85.2239 7.98714 84.9109 8.64246 84.285 9.44732L83.8733 9.92045C82.6263 11.329 81.4514 12.2671 80.3488 12.7347C79.6651 13.023 79.174 13.0094 78.8754 12.694C78.6299 12.4275 78.4349 11.9979 78.2904 11.4051L78.1171 10.6954L76.5787 11.764L75.6904 12.335C74.6311 12.9876 73.8366 13.3139 73.307 13.3139C72.6281 13.3139 72.0623 13.0175 71.6097 12.4248C71.1764 11.8646 70.9597 11.2148 70.9597 10.4751C70.9597 9.74642 71.2173 9.09655 71.7325 8.52553C72.4692 7.70979 73.632 6.96203 75.2209 6.28225C76.7232 5.64597 77.9365 5.32784 78.861 5.32784C79.174 5.32784 79.3304 5.50186 79.3304 5.84991C79.3304 6.08919 79.2895 6.26865 79.2077 6.3883C79.1258 6.50794 78.9573 6.6303 78.7021 6.75538L77.7921 7.19588C76.4439 7.83215 75.4568 8.4929 74.8309 9.17812C74.6528 9.36846 74.5637 9.55336 74.5637 9.73283C74.5637 9.91229 74.6913 10.002 74.9465 10.002C75.1968 10.002 75.7794 9.69748 76.6943 9.08839L77.2937 8.68868C78.223 8.05784 79.0006 7.74242 79.6266 7.74242C80.1562 7.74242 80.5077 8.00618 80.681 8.53369C80.7244 8.67508 80.7653 8.8192 80.8038 8.96603C80.8423 9.10743 80.8808 9.23523 80.9194 9.34943C81.006 9.6159 81.0831 9.74914 81.1505 9.74914C81.2227 9.74914 81.3238 9.71107 81.4538 9.63494C81.5838 9.55336 81.7259 9.45276 81.8799 9.33311C82.0388 9.20803 82.2025 9.07208 82.3711 8.92524L83.245 8.13398C84.0202 7.40525 84.6028 7.04089 84.9928 7.04089Z" fill="#7CB124"/>
<path d="M83.1077 10.4751C83.0163 10.4751 82.9272 10.4507 82.8405 10.4017C82.749 10.3528 82.6648 10.2739 82.5877 10.1652C82.4192 9.92588 82.3349 9.59959 82.3349 9.18628C82.3349 8.74578 82.5685 8.19652 83.0355 7.53849C83.4881 6.90221 84.0154 6.35295 84.6172 5.8907C85.2624 5.39038 85.8161 5.14022 86.2784 5.14022C86.6876 5.14022 86.9645 5.27073 87.1089 5.53177L87.21 5.71123C87.2871 5.84719 87.3641 5.91517 87.4412 5.91517C87.5182 5.91517 87.6386 5.90701 87.8023 5.8907L88.8279 5.80912C88.9867 5.79281 89.1119 5.78465 89.2034 5.78465C89.2949 5.78465 89.3984 5.82272 89.514 5.89885C89.6343 5.96955 89.7403 6.06472 89.8318 6.18436C90.034 6.45627 90.1351 6.75538 90.1351 7.08167C90.1351 7.41885 89.8053 7.94908 89.1456 8.67237L88.669 9.21075C88.3271 9.60775 88.1562 9.85791 88.1562 9.96123C88.1562 10.0646 88.1995 10.157 88.2862 10.2386C88.3728 10.3147 88.4667 10.3528 88.5678 10.3528C88.669 10.3528 88.7821 10.3229 88.9073 10.2631C89.0373 10.1978 89.1962 10.1053 89.384 9.98571C89.5718 9.86063 89.786 9.71107 90.0268 9.53705C90.6864 9.04761 91.127 8.71043 91.3485 8.52553L91.9479 8.04425C92.3572 7.71795 92.6485 7.5548 92.8218 7.5548C92.9952 7.5548 93.1372 7.59831 93.2479 7.68532C93.3587 7.7669 93.4141 7.91101 93.4141 8.11766C93.4141 8.32432 93.3202 8.60167 93.1324 8.94972C92.9446 9.29777 92.74 9.59959 92.5185 9.85519C92.3018 10.1108 92.09 10.3473 91.8829 10.5649C91.6759 10.7824 91.4303 11.019 91.1462 11.2746C90.867 11.5247 90.5564 11.7803 90.2145 12.0414C89.8727 12.297 89.5116 12.5281 89.1312 12.7347C88.2693 13.2079 87.4773 13.4444 86.755 13.4444C85.7006 13.4444 85.0578 13.1372 84.8267 12.5227C84.7544 12.3378 84.7183 12.1311 84.7183 11.9027C84.7183 11.6743 84.7568 11.4296 84.8339 11.1685C84.9109 10.9021 85.012 10.6383 85.1372 10.3773C85.3876 9.86063 85.6837 9.40381 86.0256 9.00682C86.3145 8.66421 86.4589 8.46027 86.4589 8.39501C86.4589 8.29169 86.406 8.22643 86.3 8.19924C86.1989 8.17205 86.0472 8.15845 85.845 8.15845C85.7583 8.15845 85.573 8.29984 85.2889 8.58263L84.5811 9.3168C83.83 10.089 83.3389 10.4751 83.1077 10.4751Z" fill="#7CB124"/>
<path d="M104.638 7.04089C104.792 7.04089 104.869 7.18772 104.869 7.48139C104.869 7.98714 104.556 8.64246 103.93 9.44732L103.518 9.92045C102.271 11.329 101.096 12.2671 99.9936 12.7347C99.3099 13.023 98.8188 13.0094 98.5203 12.694C98.2747 12.4275 98.0797 11.9979 97.9352 11.4051L97.7619 10.6954L96.2235 11.764L95.3352 12.335C94.2759 12.9876 93.4815 13.3139 92.9518 13.3139C92.2729 13.3139 91.7072 13.0175 91.2546 12.4248C90.8212 11.8646 90.6046 11.2148 90.6046 10.4751C90.6046 9.74642 90.8622 9.09655 91.3773 8.52553C92.114 7.70979 93.2768 6.96203 94.8657 6.28225C96.368 5.64597 97.5814 5.32784 98.5058 5.32784C98.8188 5.32784 98.9753 5.50186 98.9753 5.84991C98.9753 6.08919 98.9343 6.26865 98.8525 6.3883C98.7706 6.50794 98.6021 6.6303 98.3469 6.75538L97.4369 7.19588C96.0887 7.83215 95.1017 8.4929 94.4757 9.17812C94.2976 9.36846 94.2085 9.55336 94.2085 9.73283C94.2085 9.91229 94.3361 10.002 94.5913 10.002C94.8417 10.002 95.4243 9.69748 96.3391 9.08839L96.9386 8.68868C97.8678 8.05784 98.6455 7.74242 99.2714 7.74242C99.801 7.74242 100.153 8.00618 100.326 8.53369C100.369 8.67508 100.41 8.8192 100.449 8.96603C100.487 9.10743 100.526 9.23523 100.564 9.34943C100.651 9.6159 100.728 9.74914 100.795 9.74914C100.868 9.74914 100.969 9.71107 101.099 9.63494C101.229 9.55336 101.371 9.45276 101.525 9.33311C101.684 9.20803 101.847 9.07208 102.016 8.92524L102.89 8.13398C103.665 7.40525 104.248 7.04089 104.638 7.04089Z" fill="#7CB124"/>
<path d="M121.841 7.04089C121.995 7.04089 122.072 7.18772 122.072 7.48139C122.072 7.98714 121.759 8.64246 121.133 9.44732L120.722 9.92045C119.475 11.329 118.3 12.2671 117.197 12.7347C116.514 13.023 116.022 13.0094 115.724 12.694C115.478 12.4275 115.283 11.9979 115.139 11.4051L114.966 10.6954L113.427 11.764L112.539 12.335C111.48 12.9876 110.685 13.3139 110.155 13.3139C109.477 13.3139 108.911 13.0175 108.458 12.4248C108.025 11.8646 107.808 11.2148 107.808 10.4751C107.808 9.74642 108.066 9.09655 108.581 8.52553C109.318 7.70979 110.48 6.96203 112.069 6.28225C113.572 5.64597 114.785 5.32784 115.709 5.32784C116.022 5.32784 116.179 5.50186 116.179 5.84991C116.179 6.08919 116.138 6.26865 116.056 6.3883C115.974 6.50794 115.806 6.6303 115.551 6.75538L114.641 7.19588C113.292 7.83215 112.305 8.4929 111.679 9.17812C111.501 9.36846 111.412 9.55336 111.412 9.73283C111.412 9.91229 111.54 10.002 111.795 10.002C112.045 10.002 112.628 9.69748 113.543 9.08839L114.142 8.68868C115.072 8.05784 115.849 7.74242 116.475 7.74242C117.005 7.74242 117.356 8.00618 117.53 8.53369C117.573 8.67508 117.614 8.8192 117.652 8.96603C117.691 9.10743 117.729 9.23523 117.768 9.34943C117.855 9.6159 117.932 9.74914 117.999 9.74914C118.071 9.74914 118.172 9.71107 118.302 9.63494C118.432 9.55336 118.574 9.45276 118.728 9.33311C118.887 9.20803 119.051 9.07208 119.22 8.92524L120.093 8.13398C120.869 7.40525 121.451 7.04089 121.841 7.04089Z" fill="#7CB124"/>
<path d="M136.777 7.90557C136.777 8.16117 136.481 8.65605 135.889 9.39022C135.282 10.1353 134.687 10.7416 134.105 11.2093C132.978 12.1556 131.729 12.8027 130.356 13.1508C129.836 13.2867 129.343 13.3547 128.876 13.3547C128.414 13.3547 128.028 13.3085 127.72 13.216C127.417 13.129 127.142 13.0121 126.897 12.8653C126.656 12.713 126.447 12.539 126.269 12.3432C126.09 12.1474 125.941 11.9408 125.821 11.7232C125.585 11.299 125.467 10.9075 125.467 10.5486C125.467 10.1896 125.503 9.87422 125.575 9.60231C125.643 9.33039 125.739 9.07208 125.864 8.82736C126.302 7.93548 127.183 7.14693 128.508 6.46171C129.552 5.91245 130.549 5.55624 131.498 5.3931C131.907 5.3224 132.198 5.28705 132.371 5.28705C132.545 5.28705 132.689 5.3088 132.805 5.35231C132.925 5.39038 133.029 5.44476 133.115 5.51546C133.308 5.67317 133.404 5.88798 133.404 6.15989C133.404 6.4318 133.342 6.69012 133.217 6.93484C133.091 7.17412 132.932 7.37534 132.74 7.53849C132.364 7.85391 131.945 8.01162 131.483 8.01162C130.852 8.01162 130.332 7.91917 129.923 7.73427C129.639 7.84847 129.398 8.05784 129.201 8.36238C129.037 8.61255 128.955 8.83823 128.955 9.03945C128.955 9.23523 128.994 9.42828 129.071 9.61862C129.153 9.80352 129.266 9.96939 129.41 10.1162C129.728 10.4316 130.111 10.5894 130.559 10.5894C131.599 10.5894 132.81 9.96667 134.192 8.72131L134.849 8.14214C135.542 7.54393 136.036 7.24482 136.329 7.24482C136.628 7.24482 136.777 7.46507 136.777 7.90557Z" fill="#7CB124"/>
<path d="M134.704 10.4751C134.613 10.4751 134.524 10.4507 134.437 10.4017C134.346 10.3528 134.261 10.2739 134.184 10.1652C134.016 9.92588 133.932 9.59959 133.932 9.18628C133.932 8.74578 134.165 8.19652 134.632 7.53849C135.085 6.90221 135.612 6.35295 136.214 5.8907C136.859 5.39038 137.413 5.14022 137.875 5.14022C138.284 5.14022 138.561 5.27073 138.705 5.53177L138.807 5.71123C138.884 5.84719 138.961 5.91517 139.038 5.91517C139.115 5.91517 139.235 5.90701 139.399 5.8907L140.424 5.80912C140.583 5.79281 140.708 5.78465 140.8 5.78465C140.891 5.78465 140.995 5.82272 141.111 5.89885C141.231 5.96955 141.337 6.06472 141.428 6.18436C141.631 6.45627 141.732 6.75538 141.732 7.08167C141.732 7.41885 141.402 7.94908 140.742 8.67237L140.266 9.21075C139.924 9.60775 139.753 9.85791 139.753 9.96123C139.753 10.0646 139.796 10.157 139.883 10.2386C139.969 10.3147 140.063 10.3528 140.164 10.3528C140.266 10.3528 140.379 10.3229 140.504 10.2631C140.634 10.1978 140.793 10.1053 140.981 9.98571C141.168 9.86063 141.383 9.71107 141.623 9.53705C142.283 9.04761 142.724 8.71043 142.945 8.52553L143.544 8.04425C143.954 7.71795 144.245 7.5548 144.418 7.5548C144.592 7.5548 144.734 7.59831 144.845 7.68532C144.955 7.7669 145.011 7.91101 145.011 8.11766C145.011 8.32432 144.917 8.60167 144.729 8.94972C144.541 9.29777 144.337 9.59959 144.115 9.85519C143.898 10.1108 143.687 10.3473 143.479 10.5649C143.272 10.7824 143.027 11.019 142.743 11.2746C142.464 11.5247 142.153 11.7803 141.811 12.0414C141.469 12.297 141.108 12.5281 140.728 12.7347C139.866 13.2079 139.074 13.4444 138.352 13.4444C137.297 13.4444 136.654 13.1372 136.423 12.5227C136.351 12.3378 136.315 12.1311 136.315 11.9027C136.315 11.6743 136.353 11.4296 136.43 11.1685C136.507 10.9021 136.609 10.6383 136.734 10.3773C136.984 9.86063 137.28 9.40381 137.622 9.00682C137.911 8.66421 138.055 8.46027 138.055 8.39501C138.055 8.29169 138.003 8.22643 137.897 8.19924C137.795 8.17205 137.644 8.15845 137.442 8.15845C137.355 8.15845 137.17 8.29984 136.885 8.58263L136.178 9.3168C135.427 10.089 134.935 10.4751 134.704 10.4751Z" fill="#7CB124"/>
<path d="M149.965 3.73714C149.826 3.86766 149.674 3.97643 149.51 4.06344C149.346 4.14501 149.163 4.1858 148.961 4.1858C148.759 4.1858 148.564 4.14773 148.376 4.0716C148.188 3.99546 148.025 3.88942 147.885 3.75346C147.582 3.45979 147.43 3.08455 147.43 2.62774C147.43 1.9262 147.95 1.40413 148.99 1.06152C149.342 0.941879 149.631 0.882058 149.857 0.882058C150.083 0.882058 150.252 0.911969 150.362 0.97179C150.478 1.02617 150.572 1.09959 150.644 1.19204C150.789 1.37694 150.861 1.56728 150.861 1.76306C150.861 1.9534 150.839 2.12742 150.796 2.28513C150.757 2.44284 150.699 2.60599 150.622 2.77457C150.545 2.94316 150.451 3.11174 150.341 3.28033C150.23 3.44892 150.105 3.60119 149.965 3.73714ZM148.145 12.7184C147.779 12.9305 147.423 13.0991 147.076 13.2242C146.73 13.3547 146.388 13.42 146.051 13.42C145.718 13.42 145.372 13.3302 145.011 13.1508C144.654 12.9659 144.337 12.7211 144.057 12.4166C143.436 11.7368 143.126 10.9809 143.126 10.1489C143.126 9.38206 143.328 8.60439 143.732 7.81584C144.103 7.10343 144.575 6.50522 145.148 6.02121C145.721 5.53721 146.253 5.29521 146.744 5.29521C147.447 5.29521 147.823 5.51817 147.871 5.96411C147.885 6.10007 147.892 6.25778 147.892 6.43724C147.892 6.6167 147.854 6.82336 147.777 7.0572C147.705 7.28561 147.608 7.51674 147.488 7.75058C147.372 7.97899 147.242 8.20468 147.098 8.42764C146.958 8.64517 146.823 8.84367 146.693 9.02313C146.443 9.36574 146.243 9.61318 146.094 9.76546C146.094 9.95036 146.217 10.1407 146.462 10.3365C146.693 10.5214 146.888 10.6138 147.047 10.6138C147.211 10.6138 147.401 10.5703 147.618 10.4833C147.839 10.3963 148.066 10.2794 148.297 10.1325C148.533 9.98571 148.771 9.81712 149.012 9.62678C149.257 9.43644 149.498 9.24066 149.734 9.03945L151.056 7.87294C151.581 7.44332 152.007 7.22851 152.334 7.22851C152.464 7.22851 152.563 7.28289 152.63 7.39166C152.702 7.49498 152.739 7.61734 152.739 7.75874C152.739 7.90013 152.676 8.09591 152.551 8.34607C152.426 8.59079 152.252 8.8627 152.031 9.16181C151.814 9.46091 151.559 9.77361 151.265 10.0999C150.971 10.4262 150.654 10.7471 150.312 11.0625C149.97 11.3779 149.614 11.6797 149.243 11.968C148.877 12.2507 148.511 12.5009 148.145 12.7184Z" fill="#7CB124"/>
<path d="M155.649 5.22179C155.697 5.33055 155.721 5.47467 155.721 5.65413C155.721 5.82816 155.642 6.02665 155.483 6.24962C155.608 6.39645 155.767 6.56776 155.96 6.76354C156.157 6.95388 156.347 7.16325 156.53 7.39166C156.973 7.9518 157.195 8.48746 157.195 8.99866C157.195 9.33583 156.99 9.74642 156.581 10.2304C156.456 10.3827 156.318 10.5241 156.169 10.6546C156.67 10.4371 157.272 10.0047 157.975 9.35759L158.82 8.57448C159.311 8.11222 159.638 7.84575 159.802 7.77505C159.971 7.70436 160.122 7.66901 160.257 7.66901C160.392 7.66901 160.522 7.70707 160.647 7.78321C160.777 7.85935 160.842 7.98443 160.842 8.15845C160.842 8.32704 160.818 8.4929 160.77 8.65605C160.722 8.81376 160.664 8.96059 160.596 9.09655C160.5 9.29233 160.361 9.49354 160.178 9.7002C159.672 10.2386 159.181 10.7335 158.704 11.1848C158.232 11.6308 157.744 12.0142 157.238 12.335C156.169 13.0094 154.985 13.3465 153.685 13.3465C152.958 13.3465 152.327 13.1372 151.792 12.7184C151.571 12.5444 151.4 12.3649 151.28 12.18C151.164 11.9897 151.106 11.8429 151.106 11.7395C151.106 11.6308 151.138 11.5193 151.2 11.4051C151.263 11.2854 151.347 11.1631 151.453 11.038C151.559 10.9129 151.679 10.7878 151.814 10.6628C151.954 10.5377 152.096 10.4262 152.24 10.3283C152.577 10.1053 152.828 9.99386 152.991 9.99386C153.16 9.99386 153.287 10.0183 153.374 10.0673C153.461 10.1108 153.54 10.1597 153.612 10.2141C153.81 10.3664 153.949 10.4425 154.031 10.4425C154.229 10.4425 154.327 10.2902 154.327 9.98571C154.327 9.70292 154.195 9.36302 153.93 8.96603C153.824 8.80288 153.714 8.64246 153.598 8.48475C153.482 8.32704 153.386 8.17205 153.309 8.01977C153.155 8.22099 152.962 8.42764 152.731 8.63974L152.031 9.30864C151.544 9.78177 151.094 10.0075 150.68 9.98571C150.439 9.96395 150.319 9.66213 150.319 9.08023C150.319 8.97691 150.326 8.8763 150.341 8.77841C150.365 8.60983 150.512 8.40589 150.781 8.16661C151.051 7.92732 151.246 7.76418 151.366 7.67716C151.491 7.58471 151.597 7.50314 151.684 7.43244L152.45 6.84511C152.45 6.29041 152.734 5.78193 153.302 5.31968C153.841 4.88462 154.376 4.66709 154.905 4.66709C155.242 4.66709 155.49 4.85199 155.649 5.22179Z" fill="#7CB124"/>
<path d="M169.653 7.17141C169.884 7.17141 170 7.31824 170 7.6119C170 7.80768 169.94 8.05512 169.819 8.35423C169.704 8.64789 169.535 8.92524 169.314 9.18628C169.092 9.44188 168.837 9.70835 168.548 9.98571C168.264 10.2631 167.93 10.554 167.544 10.8585C167.164 11.1631 166.743 11.4649 166.28 11.764C165.818 12.0631 165.327 12.3323 164.807 12.5716C163.656 13.1045 162.542 13.371 161.463 13.371C160.64 13.371 159.92 13.129 159.304 12.645C158.658 12.1393 158.336 11.5247 158.336 10.8014C158.336 9.66485 158.878 8.58535 159.961 7.56296C160.895 6.68196 161.995 5.99946 163.262 5.51546C164.032 5.22179 164.684 5.07496 165.219 5.07496C165.652 5.07496 166.018 5.1946 166.317 5.43388C166.634 5.69492 166.793 6.04569 166.793 6.48619C166.793 7.17684 166.309 7.94092 165.342 8.77841C165.188 8.91437 165.048 9.02857 164.923 9.12102L164.663 9.3168C164.181 9.69748 163.449 10.1244 162.467 10.5975C162.77 10.777 163.052 10.8667 163.312 10.8667C163.577 10.8667 163.813 10.8314 164.02 10.7607C164.232 10.69 164.47 10.5894 164.735 10.4588C165 10.3283 165.281 10.1733 165.58 9.99386C165.883 9.80896 166.189 9.60775 166.497 9.39022C167.186 8.90621 167.783 8.41133 168.288 7.90557C168.553 7.62822 168.89 7.40797 169.299 7.24482C169.434 7.19588 169.552 7.17141 169.653 7.17141ZM161.687 9.46363L162.084 9.23523C162.214 9.15909 162.33 9.08839 162.431 9.02313C163.404 8.39229 163.957 8.00346 164.092 7.85663C164.227 7.70979 164.294 7.60919 164.294 7.5548C164.294 7.49498 164.28 7.427 164.251 7.35087C164.222 7.27473 164.184 7.20675 164.135 7.14693C164.02 6.99466 163.897 6.91853 163.767 6.91853C163.637 6.91853 163.493 6.94572 163.334 7.0001C163.18 7.05448 163.023 7.13062 162.864 7.22851C162.705 7.32096 162.551 7.43516 162.402 7.57112C162.258 7.70164 162.13 7.84303 162.019 7.9953C161.764 8.33791 161.637 8.6343 161.637 8.88446C161.637 9.13462 161.653 9.32768 161.687 9.46363Z" fill="#7CB124"/>
</svg>
