<svg width="123" height="50" viewBox="0 0 123 50" fill="none" xmlns="http://www.w3.org/2000/svg">
<path d="M61.7395 38.8763H62.6885V43.0521C62.6885 43.7733 62.6126 44.3617 62.4418 44.7793C62.271 45.1968 61.9863 45.5575 61.5497 45.8232C61.1132 46.0889 60.5627 46.2218 59.8604 46.2218C59.1771 46.2218 58.6267 46.1079 58.2091 45.8801C57.7726 45.6524 57.4689 45.3107 57.2791 44.8742C57.0893 44.4376 56.9944 43.8302 56.9944 43.071V38.8953H57.9434V43.0521C57.9434 43.6784 58.0004 44.1339 58.1142 44.4376C58.2281 44.7413 58.4369 44.9691 58.7216 45.1209C59.0063 45.2728 59.348 45.3677 59.7655 45.3677C60.4678 45.3677 60.9613 45.2158 61.265 44.8932C61.5687 44.5705 61.7205 43.9631 61.7205 43.0521L61.7395 38.8763ZM77.3226 46.0889V38.8763H82.1816V39.7305H78.2716V41.9702H81.6501V42.8243H78.2716V46.1079L77.3226 46.0889ZM96.379 46.0889V38.8763H99.0932C99.6437 38.8763 100.08 38.9523 100.422 39.0851C100.764 39.237 101.01 39.4647 101.2 39.7684C101.39 40.0721 101.485 40.3948 101.485 40.7174C101.485 41.0211 101.409 41.3248 101.238 41.5906C101.067 41.8563 100.82 42.084 100.479 42.2549C100.915 42.3877 101.257 42.5965 101.485 42.9002C101.713 43.2039 101.845 43.5645 101.845 44.0011C101.845 44.3427 101.769 44.6464 101.637 44.9501C101.504 45.2538 101.314 45.4626 101.105 45.6144C100.896 45.7663 100.631 45.8991 100.308 45.975C99.9853 46.051 99.6057 46.0889 99.1502 46.0889H96.379ZM97.3281 41.9132H98.8844C99.302 41.9132 99.6057 41.8753 99.7955 41.8373C100.042 41.7614 100.213 41.6475 100.346 41.4767C100.46 41.3058 100.536 41.0971 100.536 40.8503C100.536 40.6036 100.479 40.3948 100.365 40.224C100.251 40.0342 100.08 39.9203 99.8714 39.8443C99.6627 39.7684 99.283 39.7494 98.7706 39.7494H97.3281V41.9132ZM97.3281 45.2348H99.1312C99.4349 45.2348 99.6627 45.2158 99.7765 45.1968C100.004 45.1589 100.175 45.083 100.327 45.007C100.479 44.9121 100.593 44.7793 100.688 44.6085C100.783 44.4376 100.839 44.2288 100.839 44.0011C100.839 43.7353 100.764 43.5076 100.631 43.2988C100.498 43.109 100.308 42.9571 100.061 42.8812C99.8145 42.8053 99.4729 42.7673 98.9983 42.7673H97.3281V45.2348ZM115.322 46.0889L118.093 38.8763H119.118L122.079 46.0889H120.997L120.162 43.9062H117.144L116.347 46.0889H115.322ZM117.409 43.128H119.858L119.099 41.135C118.871 40.5276 118.7 40.0342 118.586 39.6356C118.491 40.0911 118.358 40.5656 118.188 41.0211L117.409 43.128Z" fill="white"/>
<path d="M59.8983 33.1252H57.0322V16.9917H59.8983V33.1252ZM60.2779 12.2655C60.2779 12.835 60.107 13.2905 59.7844 13.6321C59.4617 13.9738 59.0062 14.1636 58.4557 14.1636C57.9243 14.1636 57.5067 13.9928 57.1651 13.6321C56.8234 13.2715 56.6526 12.816 56.6526 12.2655C56.6526 11.7151 56.8234 11.2596 57.1651 10.8989C57.5067 10.5383 57.9433 10.3675 58.4557 10.3675C59.0062 10.3675 59.4427 10.5383 59.7844 10.8989C60.107 11.2596 60.2779 11.7151 60.2779 12.2655ZM64.1119 33.1252V21.3003C64.1119 20.1614 64.074 18.7189 63.9791 16.9917H66.5035L66.6364 19.2883H66.7123C67.7183 17.5611 69.2177 16.688 71.2486 16.688C72.6722 16.688 73.83 17.2195 74.7221 18.3013C75.6142 19.3643 76.0507 20.9207 76.0507 22.9326V33.1252H73.1847V23.3312C73.1847 20.5031 72.1977 19.0985 70.2427 19.0985C69.3126 19.0985 68.5534 19.4781 67.927 20.2563C67.3007 21.0156 66.978 22.0215 66.978 23.2363V33.1252H64.1119ZM83.5101 33.1252H80.644V19.1555H78.5182V16.9917H80.644V16.1186C80.644 14.6001 80.8718 13.3664 81.3273 12.3604C81.7828 11.3735 82.4092 10.6332 83.2254 10.1587C84.0415 9.68419 84.9336 9.43744 85.9206 9.43744C86.7937 9.43744 87.5529 9.58928 88.2172 9.87399L87.8187 12.0757C87.3441 11.8669 86.7937 11.772 86.1863 11.772C84.4022 11.772 83.5291 13.1956 83.5291 16.0427V16.9727H86.9266V19.1365H83.5291V33.1252H83.5101ZM101.067 24.9635C101.067 26.7287 100.782 28.2472 100.213 29.5189C99.6435 30.7905 98.8274 31.7586 97.7834 32.4229C96.7395 33.0872 95.6007 33.4288 94.3669 33.4288C92.4119 33.4288 90.8366 32.6886 89.6218 31.2081C88.4071 29.7276 87.7997 27.6967 87.7997 25.1343C87.7997 22.4391 88.445 20.3512 89.7357 18.8897C91.0264 17.4282 92.6207 16.707 94.5757 16.707C96.5307 16.707 98.1061 17.4472 99.2829 18.9277C100.479 20.4082 101.067 22.4201 101.067 24.9635ZM90.6657 25.0584C90.6657 26.8046 91.0074 28.2851 91.6907 29.4619C92.374 30.6387 93.2661 31.2271 94.4049 31.2271C95.5437 31.2271 96.4358 30.6197 97.1191 29.4239C97.8024 28.2282 98.1441 26.7667 98.1441 25.0205C98.1441 23.2932 97.8214 21.8507 97.1761 20.6549C96.5307 19.4592 95.6197 18.8897 94.4429 18.8897C93.2471 18.8897 92.336 19.4781 91.6717 20.636C91.0074 21.8127 90.6657 23.2932 90.6657 25.0584Z" fill="white"/>
<path d="M104.161 39.6355L103.819 37.3768C104.692 37.2819 105.414 37.0352 105.964 36.6556C106.515 36.276 106.913 35.6686 107.122 34.8524C107.331 34.0363 107.445 32.6127 107.445 30.6008V16.6311H110.311V31.5308C110.311 33.9793 110.007 35.7255 109.4 36.7695C108.792 37.8134 107.995 38.5536 107.008 38.9712C106.059 39.3888 105.11 39.6166 104.161 39.6355ZM110.709 11.905C110.709 12.4554 110.538 12.9109 110.197 13.2716C109.855 13.6322 109.419 13.803 108.868 13.803C108.337 13.803 107.919 13.6132 107.577 13.2526C107.236 12.8919 107.065 12.4364 107.065 11.905C107.065 11.3545 107.236 10.899 107.577 10.5384C107.919 10.1777 108.356 10.0069 108.887 10.0069C109.419 10.0069 109.855 10.1777 110.178 10.5384C110.5 10.899 110.709 11.3545 110.709 11.905ZM114.429 32.7646V21.2624C114.429 19.9717 114.392 18.4153 114.297 16.6311H116.821L116.954 19.4592H117.049C117.39 18.4912 117.903 17.732 118.624 17.1626C119.345 16.5931 120.124 16.3274 120.94 16.3274L121.642 16.3654V19.2125C121.528 19.1745 121.262 19.1365 120.883 19.1365C119.896 19.1365 119.042 19.5541 118.339 20.3703C117.637 21.1864 117.277 22.4202 117.277 24.0335V32.7646H114.429Z" fill="white"/>
<rect x="18.6726" y="0.422363" width="11.7679" height="49.3494" rx="5.88397" fill="white"/>
<path d="M49.6298 12.854C49.3261 -4.38038 0.716946 -4.49426 0.0146655 13.784C-0.440868 25.4001 9.86557 33.0683 10.0744 43.3177C10.1693 47.8921 17.5147 50.0558 24.9361 49.9989C25.012 49.9989 25.088 49.9989 25.1829 49.9989C26.2268 49.9989 27.2517 49.942 28.2577 49.8281C34.825 49.1827 40.5761 46.7722 40.3104 42.7294C39.3613 29.1772 48.6428 23.1794 49.6298 12.854ZM29.7192 45.6144C29.7192 47.7782 27.8401 49.5434 25.5435 49.5434H23.4556C21.159 49.5434 19.2799 47.7782 19.2799 45.6144V18.6051C19.2799 16.4413 21.159 14.6761 23.4556 14.6761H25.5435C27.8401 14.6761 29.7192 16.4413 29.7192 18.6051V45.6144ZM24.4996 13.1387C21.2919 13.1387 18.6915 10.4055 18.6915 7.04592C18.6915 3.68636 21.2919 0.953159 24.4996 0.953159C27.7073 0.953159 30.3076 3.68636 30.3076 7.04592C30.3076 10.4055 27.7073 13.1387 24.4996 13.1387Z" fill="#7CB124"/>
</svg>
